<svg id="Artboard_1" data-name="Artboard 1" xmlns="http://www.w3.org/2000/svg" viewBox="0 0 685.63 338.75"><defs><style>.cls-1,.cls-2{fill:#edd08e;}.cls-1{fill-rule:evenodd;}.cls-3{font-size:66px;letter-spacing:-0.02em;}.cls-11,.cls-3,.cls-8{font-family:LeMondeLivreStd-Regular, Le Monde Livre Std;}.cls-4{letter-spacing:-0.03em;}.cls-5{letter-spacing:0.02em;}.cls-6{letter-spacing:0em;}.cls-7{letter-spacing:0em;}.cls-11,.cls-8{font-size:21px;letter-spacing:0.2em;}.cls-8{fill:#80bbb9;}.cls-9{letter-spacing:0.12em;}.cls-10{letter-spacing:0.2em;}.cls-11{fill:#215b6d;}</style></defs><title>Logo_RightUp</title><g id="Shape_1" data-name="Shape 1"><path class="cls-1" d="M160,133.57s5.12,74.7,2,99.93c-1.81,14.38-5.83,32.17-25.17,51.83C110.1,312.42,84.79,325.1,84.79,325.1V280.67a128.07,128.07,0,0,0,22.28-16.91c12-11.76,16.5-19.74,16.66-30.09C124.15,207.75,118,21.82,118,21.82L47.21,136.47v211h159V168.4Z" transform="translate(-26.75 -21.82)"/></g><rect class="cls-2" y="325.68" width="199.92" height="13.08"/><text class="cls-3" transform="translate(162.13 56.18)">J<tspan class="cls-4" x="22.51" y="0">.</tspan><tspan class="cls-5" x="37.42" y="0" xml:space="preserve"> JEFFE</tspan><tspan class="cls-6" x="239.97" y="0">R</tspan><tspan class="cls-5" x="285.51" y="0">S &amp; </tspan><tspan class="cls-7" x="413.35" y="0">CO</tspan><tspan class="cls-4" x="508.59" y="0">.</tspan></text><text class="cls-8" transform="translate(324.25 98.84)">REAL ES<tspan class="cls-9" x="112.5" y="0">TA</tspan><tspan class="cls-10" x="145.61" y="0">TE</tspan></text><text class="cls-11" transform="translate(324.25 98.84)">REAL ES<tspan class="cls-9" x="112.5" y="0">TA</tspan><tspan class="cls-10" x="145.61" y="0">TE</tspan></text><text x="-26.75" y="-21.82"></text></svg>