<svg id="Artboard_1" data-name="Artboard 1" xmlns="http://www.w3.org/2000/svg" viewBox="0 0 524.83 508.55"><defs><style>.cls-1,.cls-2{fill:#edd08e;}.cls-1{fill-rule:evenodd;}.cls-3{font-size:66px;letter-spacing:-0.02em;}.cls-3,.cls-8{font-family:LeMondeLivreStd-Regular, Le Monde Livre Std;}.cls-4{letter-spacing:-0.03em;}.cls-5{letter-spacing:0.02em;}.cls-6{letter-spacing:0em;}.cls-7{letter-spacing:0em;}.cls-8{font-size:21px;fill:#fff;letter-spacing:0.2em;}.cls-9{letter-spacing:0.12em;}.cls-10{letter-spacing:0.2em;}</style></defs><title>Logo_CenteredDown</title><g id="Shape_1" data-name="Shape 1"><path class="cls-1" d="M362.62,151.57s5.12,74.7,1.95,99.93c-1.81,14.38-5.84,32.17-25.17,51.83-26.63,27.09-51.94,39.77-51.94,39.77V298.67a128.07,128.07,0,0,0,22.28-16.91c12-11.76,16.49-19.74,16.66-30.09.42-25.92-5.78-211.85-5.78-211.85L249.87,154.47v211h159V186.4Z" transform="translate(-80.89 -39.82)"/></g><rect class="cls-2" x="148.53" y="325.68" width="199.92" height="13.08"/><text class="cls-3" transform="translate(1.32 432.84)">J<tspan class="cls-4" x="22.51" y="0">.</tspan><tspan class="cls-5" x="37.42" y="0" xml:space="preserve"> JEFFE</tspan><tspan class="cls-6" x="239.97" y="0">R</tspan><tspan class="cls-5" x="285.51" y="0">S &amp; </tspan><tspan class="cls-7" x="413.35" y="0">CO</tspan><tspan class="cls-4" x="508.59" y="0">.</tspan></text><text class="cls-8" transform="translate(160.78 503.51)">REAL ES<tspan class="cls-9" x="112.5" y="0">TA</tspan><tspan class="cls-10" x="145.61" y="0">TE</tspan></text></svg>